inDegrees=no
num_controls=7
num_derivatives=13
num_iterations=128
num_multipliers=7
num_parameters=0
num_slacks=7
num_states=26
objective=0.452108
objective_accelerations=0.042963
objective_balance=0.007741
objective_effort=0.034953
objective_height=0.361462
objective_ligament=0.004989
solver_duration=1821.942896
status=Solve_Succeeded
success=true
DataType=double
version=3
OpenSimVersion=4.5
endheader
time	/jointset/ground_pelvis/pelvis_tilt/value	/jointset/ground_pelvis/pelvis_tx/value	/jointset/ground_pelvis/pelvis_ty/value	/jointset/hip_l/hip_flexion_l/value	/jointset/hip_l/hip_adduction_l/value	/jointset/hip_l/hip_rotation_l/value	/jointset/back/lumbar_extension/value	/jointset/patellofemoral_l/patellar_flexion_l/value	/jointset/knee_l/knee_flexion_l/value	/jointset/knee_l/knee_adduction_l/value	/jointset/knee_l/knee_rotation_l/value	/jointset/ankle_l/ankle_angle_l/value	/jointset/subtalar_l/subtalar_angle_l/value	/jointset/ground_pelvis/pelvis_tilt/speed	/jointset/ground_pelvis/pelvis_tx/speed	/jointset/ground_pelvis/pelvis_ty/speed	/jointset/hip_l/hip_flexion_l/speed	/jointset/hip_l/hip_adduction_l/speed	/jointset/hip_l/hip_rotation_l/speed	/jointset/back/lumbar_extension/speed	/jointset/patellofemoral_l/patellar_flexion_l/speed	/jointset/knee_l/knee_flexion_l/speed	/jointset/knee_l/knee_adduction_l/speed	/jointset/knee_l/knee_rotation_l/speed	/jointset/ankle_l/ankle_angle_l/speed	/jointset/subtalar_l/subtalar_angle_l/speed	/forceset/tau_hip_flexion_l	/forceset/tau_hip_adduction_l	/forceset/tau_hip_rotation_l	/forceset/tau_knee_flexion_l	/forceset/tau_ankle_angle_l	/forceset/tau_subtalar_angle_l	/forceset/tau_lumbar_extension	lambda_cid13_p0	lambda_cid13_p1	lambda_cid13_p2	lambda_cid13_p3	lambda_cid13_p4	lambda_cid13_p5	lambda_cid14_p0	/jointset/ground_pelvis/pelvis_tilt/accel	/jointset/ground_pelvis/pelvis_tx/accel	/jointset/ground_pelvis/pelvis_ty/accel	/jointset/hip_l/hip_flexion_l/accel	/jointset/hip_l/hip_adduction_l/accel	/jointset/hip_l/hip_rotation_l/accel	/jointset/back/lumbar_extension/accel	/jointset/patellofemoral_l/patellar_flexion_l/accel	/jointset/knee_l/knee_flexion_l/accel	/jointset/knee_l/knee_adduction_l/accel	/jointset/knee_l/knee_rotation_l/accel	/jointset/ankle_l/ankle_angle_l/accel	/jointset/subtalar_l/subtalar_angle_l/accel	gamma_cid13_p0	gamma_cid13_p1	gamma_cid13_p2	gamma_cid13_p3	gamma_cid13_p4	gamma_cid13_p5	gamma_cid14_p0
1	-0.6619136039133739	-0.1350735955244877	0.6371506760506864	1.835896400396924	-0.3071791306985036	0.07428558131286524	-0.4362946436694444	1.034399219846513	1.034399219846358	-0.1745169959780173	0.1745241186517713	0.04380250492401955	-0.04914396995434701	-0.01486497939003685	0.0006590234252070694	-0.004809415803671256	0.02474626896347898	0.0007825150516405526	0.005133838516969877	0.0006381683728650943	0.01351569003026095	0.01351569003026209	2.07109535592855e-05	-6.344175259256413e-05	0.004670559955580526	0.001579910422010218	-0.4338774416399641	0.01504558860287755	-0.01970996699800363	-0.217849836674013	0.1491305893946042	0.04062451646993571	0.3484921709819605	2.395584915139668	-18.49104176381378	3.034854362364161	4.983891615168736	-714.9409663385659	-47.11484427937336	-7.106307878313446	1.981557025906197	0.3395441942288385	1.430444050581067	-5.782303260035375	-0.1965845821160768	-1.454767699045174	-0.05966358223704393	-4.024016658891259	-4.024016658891234	-0.03007719872962506	0.01228110069204184	-0.4706362918531894	-0.2495933404169944	1.424807818703973e-09	3.662449235796201e-09	-5.273179298597703e-09	-1.281081366786247e-09	2.039829816405208e-09	-1.049023696241372e-09	1.233803735874257e-09
1.01	-0.661963866304538	-0.1350500872079811	0.6371739883295804	1.835855697284003	-0.3071804645206354	0.07426378557837668	-0.4362904996425562	1.034333401887078	1.034333401886957	-0.1745168530333261	0.1745236282834246	0.0438258341102948	-0.04913992537122008	0.004815310083775932	0.004043632626416888	0.009469756308493352	-0.03288462044022465	-0.001049336228659249	-0.009490415414320432	0.0001849915435305752	-0.02667392089544891	-0.02667392089545031	5.547625602653767e-06	-3.321049564222176e-05	-4.482475154052201e-06	-0.0007710549312174358	-0.4337550069159886	0.01505733068405674	-0.01971198899357346	-0.2178228658009568	0.1491354146777411	0.04063369938381612	0.3484055095448731	2.406901307497229	-18.49821979884934	3.037379056249554	4.946870202623179	-714.8073559503346	-47.13129371038827	-7.110074069866553	1.961686000334938	0.338068276896487	1.426335985779731	-5.753141418196308	-0.1764946311331673	-1.465870862602939	-0.03899155250247162	-4.015628675145742	-4.015628675146218	0.01241368500653834	-0.00139509087400653	-0.4659020637249641	-0.2278578982341759	-1.437561252698085e-09	-3.548792420648214e-09	9.777048193204616e-09	3.895273022891632e-10	-2.527162122391512e-09	8.48967423186344e-09	-2.368516892415118e-09
1.02	-0.6618172415825215	-0.1349927030006966	0.6373400287684452	1.83523875334951	-0.3072001187015993	0.07409582398008785	-0.4362910567477976	1.033865848745238	1.033865848745156	-0.1745169318049485	0.1745234823818294	0.04380242010325438	-0.04915939239471716	0.02451244324623278	0.0074342015808008	0.0237362161904866	-0.0905018953502655	-0.002881556714808592	-0.02409933424288987	-0.0003020580546347738	-0.06683134645055469	-0.06683134645056192	-2.363230894544673e-05	5.451598486683907e-06	-0.004678078707544007	-0.003122410902786487	-0.4336325721920313	0.01506907276523291	-0.01971401098914241	-0.2177958949278969	0.1491402399608809	0.04064288229769405	0.3483188481077645	2.412088014474603	-18.50537673817891	3.041102320041779	4.922177656660262	-714.7579572912136	-47.13010571742915	-7.136851301654453	1.984925763635007	0.340736144863658	1.427901604546794	-5.779580361302818	-0.1966584232859864	-1.451700678501003	-0.06643813600317972	-4.01757958477044	-4.017579584771075	-0.03288052004791757	0.01396726812775921	-0.4703470521842634	-0.2496714640852752	-4.269928296343992e-09	-1.068570118594156e-08	2.367934221841815e-08	2.234309745563814e-09	-7.197338610561418e-09	1.730326267504171e-08	-5.751607344993913e-09
1.03	-0.6614734849722069	-0.1349013339336361	0.6376486808589066	1.83404556146374	-0.3072380373746563	0.07378184761916708	-0.4362963250900521	1.03299682492081	1.032996824920785	-0.1745173299365995	0.174523727973586	0.04373229605816568	-0.04920230743096943	0.04424963679953217	0.01084558121065341	0.03799322821389883	-0.1481490007700257	-0.004696218901215491	-0.03869463068442041	-0.0007246945662716028	-0.106973791703178	-0.1069737917031832	-5.316044334511539e-05	4.194211007688727e-05	-0.009344524729345835	-0.005453833717624547	-0.4337740027964582	0.01522195689714016	-0.01971075962371726	-0.2175257157017124	0.148906239602649	0.04075302068194597	0.3485244582112501	2.337767349353697	-18.54438955541994	3.052111078578552	4.897582628209378	-714.8238899573165	-47.1705254045048	-7.186784658454163	1.969728934471487	0.3422351063159457	1.424452546026415	-5.759154664246614	-0.1729792087867199	-1.463256340123169	-0.02613903416982503	-4.012631138742192	-4.012631138741486	0.01243253631877572	-0.001778069345212168	-0.4644624070306801	-0.2238648769266534	-7.10198919684953e-09	-1.78218514523456e-08	3.756992263682975e-08	4.080869472248664e-09	-1.186856800229636e-08	2.610945204184318e-08	-9.132460754963415e-09
1.04	-0.6609320338697012	-0.1347756718234231	0.63809987337856	1.832275522717383	-0.307293924488071	0.07332195585120274	-0.4363050123224981	1.031726365815209	1.031726365815242	-0.1745179390503026	0.1745242848680517	0.04361557374688853	-0.04926833413271881	0.06405134168459417	0.01429281021129795	0.05224430202883633	-0.2058712674671445	-0.006475244786370414	-0.05328241565171399	-0.0009858360949423655	-0.1471184026851581	-0.1471184026851578	-6.582871955394238e-05	6.771214087259264e-05	-0.01399773194524964	-0.007744744002206157	-0.4339154334008882	0.01537484102904873	-0.01970750825830708	-0.2172555364755251	0.1486722392444187	0.04086315906619966	0.3487300683147312	2.257281157828934	-18.58339268175939	3.064340420241699	4.885043206351263	-714.9747536150539	-47.19352794169141	-7.26007792277965	1.997828029987527	0.3479060190220452	1.426713962851847	-5.794612616774548	-0.1895311630355896	-1.45019838365361	-0.03413913940988642	-4.018012730641794	-4.018012730641724	-0.02950854840974796	0.0118231719688573	-0.4676992910046566	-0.2415689580339835	-9.631889048075579e-09	-2.513550012469573e-08	5.184752796076616e-08	4.940731829230298e-09	-1.599089921170346e-08	3.520245191858466e-08	-1.26853749726943e-08
1.05	-0.6601921383941659	-0.1346153056095379	0.6386935270797531	1.829927811310275	-0.3073673920147	0.07271628909209618	-0.4363153985311973	1.030054522661004	1.030054522661041	-0.1745186179730254	0.1745250381583024	0.04345243721556913	-0.04935702416042307	0.08394966070964822	0.0177917621842697	0.06648361094316035	-0.2636918625202752	-0.008208801094757658	-0.0678450962199575	-0.001054567212248618	-0.1872431560144274	-0.1872431560144276	-6.776274230016008e-05	8.119867959717255e-05	-0.01862184630224625	-0.009981759737087478	-0.4339996265956412	0.01559183309481438	-0.01970868194649882	-0.2168805470384747	0.1484456641863559	0.04103428465937378	0.348971819879928	2.188446933977285	-18.65391593905869	3.085013793882774	4.800942127094477	-715.0356463385174	-47.26790593725508	-7.357103060109623	1.989118253147663	0.3525903915408502	1.422111205041414	-5.778912371067202	-0.1638541844239175	-1.458441546281781	0.01228566720208085	-4.0086425281767	-4.008642528176679	0.01478686452021047	-0.004167062775856638	-0.4586080382083367	-0.2130452327450734	-1.215234636651165e-08	-3.245469562223167e-08	6.613722781300022e-08	5.769759893408712e-09	-2.009607735291281e-08	4.430441462376178e-08	-1.624366609066773e-08
1.06	-0.6592526028455032	-0.1344196097549018	0.6394294882399536	1.82700126806834	-0.3074579123683494	0.07196516779673322	-0.4363253668980365	1.027981644794684	1.027981644794725	-0.17451925169723	0.1745258706224189	0.04324329143464763	-0.04946773981578211	0.103979356310034	0.0213587383614822	0.08070579383023788	-0.3216376344328005	-0.009885810190490802	-0.08237332290308301	-0.0009022677258307588	-0.2273253451079852	-0.2273253451079807	-5.678901595556375e-05	8.354691431706133e-05	-0.02319958186569022	-0.01214986953316372	-0.4340838197903917	0.01580882516058177	-0.01970985563469391	-0.2165055576014236	0.1482190891282936	0.04120541025254987	0.349213571445127	2.11339837659748	-18.72446452195589	3.106963090146068	4.728103999622288	-715.1827351664607	-47.32545646077587	-7.478266904343171	2.024103345053869	0.3615108598701957	1.423288757402543	-5.81964798865347	-0.1782217205047654	-1.443307606630006	0.01006698133508154	-4.0094998834995	-4.009499883498407	-0.02692699859158391	0.009595511167910718	-0.4584235322941285	-0.2277877702729637	-1.472966121974983e-08	-3.990881032001004e-08	7.923072563947536e-08	6.92841165485183e-09	-2.427418427060397e-08	5.252837966590685e-08	-1.958227863695332e-08
